<svg width="22" height="22" viewBox="0 0 22 22" fill="none" xmlns="http://www.w3.org/2000/svg">
<path d="M8 5.99902C7.99965 7.39909 8.36673 8.77473 9.06457 9.98849C9.76241 11.2023 10.7666 12.2116 11.9767 12.9157C13.1868 13.6198 14.5605 13.994 15.9606 14.0009C17.3606 14.0078 18.738 13.6472 19.955 12.955C19.474 18.029 15.2 21.999 10 21.999C4.477 21.999 0 17.522 0 11.999C0 6.79902 3.97 2.52502 9.044 2.04402C8.35756 3.24896 7.99768 4.61227 8 5.99902V5.99902ZM2 11.999C2 14.1208 2.84285 16.1556 4.34315 17.6559C5.84344 19.1562 7.87827 19.999 10 19.999C11.4135 19.9989 12.8017 19.6246 14.0237 18.9142C15.2456 18.2037 16.2577 17.1824 16.957 15.954C16.641 15.984 16.321 15.999 16 15.999C10.477 15.999 6 11.522 6 5.99902C6 5.67802 6.015 5.35902 6.045 5.04202C4.81664 5.74135 3.79533 6.75341 3.08486 7.97535C2.37438 9.19729 2.00008 10.5855 2 11.999V11.999ZM16.164 2.29002L17 2.49902V3.49902L16.164 3.70802C15.8124 3.79596 15.4913 3.97778 15.235 4.23405C14.9788 4.49033 14.7969 4.81142 14.709 5.16302L14.5 5.99902H13.5L13.291 5.16302C13.2031 4.81142 13.0212 4.49033 12.765 4.23405C12.5087 3.97778 12.1876 3.79596 11.836 3.70802L11 3.49902V2.49902L11.836 2.29002C12.1874 2.20193 12.5083 2.02004 12.7644 1.76378C13.0205 1.50751 13.2021 1.1865 13.29 0.835023L13.5 -0.000976562H14.5L14.709 0.835023C14.7969 1.18662 14.9788 1.50772 15.235 1.76399C15.4913 2.02027 15.8124 2.20209 16.164 2.29002V2.29002ZM21.164 7.29002L22 7.49902V8.49902L21.164 8.70802C20.8124 8.79596 20.4913 8.97778 20.235 9.23405C19.9788 9.49033 19.7969 9.81142 19.709 10.163L19.5 10.999H18.5L18.291 10.163C18.2031 9.81142 18.0212 9.49033 17.765 9.23405C17.5087 8.97778 17.1876 8.79596 16.836 8.70802L16 8.49902V7.49902L16.836 7.29002C17.1876 7.20209 17.5087 7.02027 17.765 6.76399C18.0212 6.50772 18.2031 6.18662 18.291 5.83502L18.5 4.99902H19.5L19.709 5.83502C19.7969 6.18662 19.9788 6.50772 20.235 6.76399C20.4913 7.02027 20.8124 7.20209 21.164 7.29002Z" fill="#000000"/>
</svg>
