<svg width="512" height="423" viewBox="0 0 512 423" fill="none" xmlns="http://www.w3.org/2000/svg">
<path d="M448 19H64C46.3269 19 32 33.3269 32 51V307C32 324.673 46.3269 339 64 339H448C465.673 339 480 324.673 480 307V51C480 33.3269 465.673 19 448 19Z" stroke="white" stroke-width="32" stroke-linejoin="round"/>
<path d="M304 403L296 339H216L208 403H304Z" fill="white" stroke="white" stroke-width="32" stroke-linecap="round" stroke-linejoin="round"/>
<path d="M368 403H144" stroke="white" stroke-width="32" stroke-linecap="round" stroke-linejoin="round"/>
<path d="M32 259V307C32.0237 315.48 35.4028 323.605 41.3988 329.601C47.3948 335.597 55.5204 338.976 64 339H448C456.48 338.976 464.605 335.597 470.601 329.601C476.597 323.605 479.976 315.48 480 307V259H32ZM256 323C252.835 323 249.742 322.062 247.111 320.304C244.48 318.545 242.429 316.047 241.218 313.123C240.007 310.199 239.69 306.982 240.307 303.879C240.925 300.775 242.449 297.924 244.686 295.686C246.924 293.449 249.775 291.925 252.879 291.307C255.982 290.69 259.199 291.007 262.123 292.218C265.047 293.429 267.545 295.48 269.304 298.111C271.062 300.742 272 303.835 272 307C272 311.243 270.314 315.313 267.314 318.314C264.313 321.314 260.243 323 256 323Z" fill="white"/>
</svg>
