<svg width="22" height="23" viewBox="0 0 22 23" fill="none" xmlns="http://www.w3.org/2000/svg">
<path d="M11 17.5547C9.4087 17.5547 7.88258 16.9225 6.75736 15.7973C5.63214 14.6721 5 13.146 5 11.5547C5 9.96339 5.63214 8.43727 6.75736 7.31205C7.88258 6.18683 9.4087 5.55469 11 5.55469C12.5913 5.55469 14.1174 6.18683 15.2426 7.31205C16.3679 8.43727 17 9.96339 17 11.5547C17 13.146 16.3679 14.6721 15.2426 15.7973C14.1174 16.9225 12.5913 17.5547 11 17.5547ZM11 15.5547C12.0609 15.5547 13.0783 15.1333 13.8284 14.3831C14.5786 13.633 15 12.6156 15 11.5547C15 10.4938 14.5786 9.47641 13.8284 8.72626C13.0783 7.97611 12.0609 7.55469 11 7.55469C9.93913 7.55469 8.92172 7.97611 8.17157 8.72626C7.42143 9.47641 7 10.4938 7 11.5547C7 12.6156 7.42143 13.633 8.17157 14.3831C8.92172 15.1333 9.93913 15.5547 11 15.5547V15.5547ZM10 0.554688H12V3.55469H10V0.554688ZM10 19.5547H12V22.5547H10V19.5547ZM2.515 4.48369L3.929 3.06969L6.05 5.19069L4.636 6.60469L2.515 4.48469V4.48369ZM15.95 17.9187L17.364 16.5047L19.485 18.6257L18.071 20.0397L15.95 17.9187ZM18.071 3.06869L19.485 4.48369L17.364 6.60469L15.95 5.19069L18.071 3.06969V3.06869ZM4.636 16.5047L6.05 17.9187L3.929 20.0397L2.515 18.6257L4.636 16.5047V16.5047ZM22 10.5547V12.5547H19V10.5547H22ZM3 10.5547V12.5547H0V10.5547H3Z" fill="#000000"/>
</svg>
